HIERARCHY
ROOT Hips
{
	OFFSET 0.000000 83.214638 0.000000
	CHANNELS 6 Xposition Yposition Zposition Xrotation Yrotation Zrotation
	JOINT Pelvis
	{
		OFFSET 0.000000 0.000000 0.000000
		CHANNELS 3 Xrotation Yrotation Zrotation
		JOINT LeftUpLeg
		{
			OFFSET 8.479700 -4.795502 -0.379100
			CHANNELS 3 Xrotation Yrotation Zrotation
			JOINT LeftLeg
			{
				OFFSET 0.024144 -32.555107 0.112900
				CHANNELS 3 Xrotation Yrotation Zrotation
				JOINT LeftFoot
				{
					OFFSET -0.024144 -32.638630 -3.012600
					CHANNELS 3 Xrotation Yrotation Zrotation
					JOINT LeftToeBase
					{
						OFFSET 0.970200 -13.225400 11.864200
						CHANNELS 3 Xrotation Yrotation Zrotation
						End Site
						{
							OFFSET 0.000000 12.319262 0.000000
						}
					}
					JOINT LFootTongue
					{
						OFFSET 1.142400 -1.059800 6.665200
						CHANNELS 3 Xrotation Yrotation Zrotation
						End Site
						{
							OFFSET 0.000000 12.319262 0.000000
						}
					}
				}
				JOINT LeftPantLeg
				{
					OFFSET 0.918482 -16.533964 -2.284700
					CHANNELS 3 Xrotation Yrotation Zrotation
					End Site
					{
						OFFSET 0.350399 24.744368 0.000000
					}
				}
			}
		}
		JOINT RightUpLeg
		{
			OFFSET -8.479700 -4.795502 -0.379100
			CHANNELS 3 Xrotation Yrotation Zrotation
			JOINT RightLeg
			{
				OFFSET -0.023144 -32.555092 0.112900
				CHANNELS 3 Xrotation Yrotation Zrotation
				JOINT RightFoot
				{
					OFFSET 0.023144 -32.638641 -3.012700
					CHANNELS 3 Xrotation Yrotation Zrotation
					JOINT RightToeBase
					{
						OFFSET -0.970200 -13.225400 11.864200
						CHANNELS 3 Xrotation Yrotation Zrotation
						End Site
						{
							OFFSET 0.000000 12.319244 0.000000
						}
					}
					JOINT RFootTongue
					{
						OFFSET -1.142200 -1.059800 6.665200
						CHANNELS 3 Xrotation Yrotation Zrotation
						End Site
						{
							OFFSET 0.000000 12.319243 0.000000
						}
					}
				}
				JOINT RightPantLeg
				{
					OFFSET -0.919482 -16.533978 -2.284800
					CHANNELS 3 Xrotation Yrotation Zrotation
					End Site
					{
						OFFSET -0.350400 24.744419 0.000000
					}
				}
			}
		}
	}
	JOINT Spine
	{
		OFFSET 0.000000 7.722000 1.166200
		CHANNELS 3 Xrotation Yrotation Zrotation
		JOINT Spine1
		{
			OFFSET 0.000000 12.024101 0.248800
			CHANNELS 3 Xrotation Yrotation Zrotation
			JOINT Spine2
			{
				OFFSET 0.000000 11.502998 -0.491200
				CHANNELS 3 Xrotation Yrotation Zrotation
				JOINT Neck
				{
					OFFSET 0.000000 18.430702 -3.123100
					CHANNELS 3 Xrotation Yrotation Zrotation
					JOINT Head
					{
						OFFSET 0.000000 9.051102 1.034000
						CHANNELS 3 Xrotation Yrotation Zrotation
						JOINT HairB
						{
							OFFSET 0.208400 24.786102 24.822300
							CHANNELS 3 Xrotation Yrotation Zrotation
							End Site
							{
								OFFSET 0.000000 32.263779 0.000000
							}
						}
						JOINT HairA
						{
							OFFSET -7.081100 24.428299 23.196600
							CHANNELS 3 Xrotation Yrotation Zrotation
							End Site
							{
								OFFSET 0.000000 32.263779 0.000000
							}
						}
						JOINT Hat
						{
							OFFSET 16.728800 15.048294 -15.439601
							CHANNELS 3 Xrotation Yrotation Zrotation
							End Site
							{
								OFFSET 0.000000 32.263779 0.000000
							}
						}
					}
				}
				JOINT LeftShoulder
				{
					OFFSET 6.197800 13.665199 -4.064700
					CHANNELS 3 Xrotation Yrotation Zrotation
					JOINT LeftArm
					{
						OFFSET 7.778100 -0.187103 -1.709300
						CHANNELS 3 Xrotation Yrotation Zrotation
						JOINT LeftForeArm
						{
							OFFSET 22.049376 0.000000 0.000000
							CHANNELS 3 Xrotation Yrotation Zrotation
							JOINT LeftHand
							{
								OFFSET 23.009392 0.000000 0.000000
								CHANNELS 3 Xrotation Yrotation Zrotation
								JOINT LeftHandThumb1
								{
									OFFSET 3.507191 -2.063065 3.133727
									CHANNELS 3 Xrotation Yrotation Zrotation
									JOINT LeftHandThumb2
									{
										OFFSET 3.101337 -1.790558 1.790558
										CHANNELS 3 Xrotation Yrotation Zrotation
										JOINT LeftHandThumb3
										{
											OFFSET 3.058640 -1.765907 1.765906
											CHANNELS 3 Xrotation Yrotation Zrotation
											End Site
											{
												OFFSET -0.415260 3.926476 -0.049563
											}
										}
									}
								}
								JOINT LeftHandIndex1
								{
									OFFSET 11.334419 -0.901459 3.706815
									CHANNELS 3 Xrotation Yrotation Zrotation
									JOINT LeftHandIndex2
									{
										OFFSET 3.283112 0.000000 0.000000
										CHANNELS 3 Xrotation Yrotation Zrotation
										JOINT LeftHandIndex3
										{
											OFFSET 3.323853 0.000000 0.000000
											CHANNELS 3 Xrotation Yrotation Zrotation
											End Site
											{
												OFFSET -1.135597 3.097809 0.402452
											}
										}
									}
								}
								JOINT LeftHandMiddle1
								{
									OFFSET 11.335861 0.000000 0.000000
									CHANNELS 3 Xrotation Yrotation Zrotation
									JOINT LeftHandMiddle2
									{
										OFFSET 3.410492 0.000000 0.000000
										CHANNELS 3 Xrotation Yrotation Zrotation
										JOINT LeftHandMiddle3
										{
											OFFSET 3.312172 0.000000 0.000000
											CHANNELS 3 Xrotation Yrotation Zrotation
											End Site
											{
												OFFSET -1.150200 3.080154 0.400270
											}
										}
									}
								}
								JOINT LeftHandRing1
								{
									OFFSET 11.514786 -0.013176 -3.003090
									CHANNELS 3 Xrotation Yrotation Zrotation
									JOINT LeftHandRing2
									{
										OFFSET 3.053307 0.000000 0.000000
										CHANNELS 3 Xrotation Yrotation Zrotation
										JOINT LeftHandRing3
										{
											OFFSET 3.295807 0.000000 0.000000
											CHANNELS 3 Xrotation Yrotation Zrotation
											End Site
											{
												OFFSET -1.281006 3.013344 0.375733
											}
										}
									}
								}
								JOINT LeftHandPinky1
								{
									OFFSET 10.518692 -0.960396 -5.730441
									CHANNELS 3 Xrotation Yrotation Zrotation
									JOINT LeftHandPinky2
									{
										OFFSET 2.861649 0.000000 0.000000
										CHANNELS 3 Xrotation Yrotation Zrotation
										JOINT LeftHandPinky3
										{
											OFFSET 2.863380 0.000000 0.000000
											CHANNELS 3 Xrotation Yrotation Zrotation
											End Site
											{
												OFFSET -0.843597 2.711159 0.369971
											}
										}
									}
								}
							}
							JOINT LSleeve
							{
								OFFSET 6.676277 -0.344902 -1.011730
								CHANNELS 3 Xrotation Yrotation Zrotation
								End Site
								{
									OFFSET 0.000000 14.885353 0.000000
								}
							}
						}
					}
				}
				JOINT RightShoulder
				{
					OFFSET -6.197800 13.665199 -4.064700
					CHANNELS 3 Xrotation Yrotation Zrotation
					JOINT RightArm
					{
						OFFSET -7.778100 -0.187103 -1.709300
						CHANNELS 3 Xrotation Yrotation Zrotation
						JOINT RightForeArm
						{
							OFFSET -22.049376 0.000000 0.000000
							CHANNELS 3 Xrotation Yrotation Zrotation
							JOINT RightHand
							{
								OFFSET -23.009392 0.000000 0.000000
								CHANNELS 3 Xrotation Yrotation Zrotation
								JOINT RightHandThumb1
								{
									OFFSET -3.507191 -2.063065 3.133727
									CHANNELS 3 Xrotation Yrotation Zrotation
									JOINT RightHandThumb2
									{
										OFFSET -3.101337 -1.790558 1.790558
										CHANNELS 3 Xrotation Yrotation Zrotation
										JOINT RightHandThumb3
										{
											OFFSET -3.058640 -1.765907 1.765906
											CHANNELS 3 Xrotation Yrotation Zrotation
											End Site
											{
												OFFSET 0.415260 3.926476 -0.049563
											}
										}
									}
								}
								JOINT RightHandIndex1
								{
									OFFSET -11.334419 -0.901459 3.706815
									CHANNELS 3 Xrotation Yrotation Zrotation
									JOINT RightHandIndex2
									{
										OFFSET -3.283112 0.000000 0.000000
										CHANNELS 3 Xrotation Yrotation Zrotation
										JOINT RightHandIndex3
										{
											OFFSET -3.323853 0.000000 0.000000
											CHANNELS 3 Xrotation Yrotation Zrotation
											End Site
											{
												OFFSET 1.135597 3.097809 0.402452
											}
										}
									}
								}
								JOINT RightHandMiddle1
								{
									OFFSET -11.335861 0.000000 0.000000
									CHANNELS 3 Xrotation Yrotation Zrotation
									JOINT RightHandMiddle2
									{
										OFFSET -3.410492 0.000000 0.000000
										CHANNELS 3 Xrotation Yrotation Zrotation
										JOINT RightHandMiddle3
										{
											OFFSET -3.312172 0.000000 0.000000
											CHANNELS 3 Xrotation Yrotation Zrotation
											End Site
											{
												OFFSET 1.150200 3.080154 0.400270
											}
										}
									}
								}
								JOINT RightHandRing1
								{
									OFFSET -11.514786 -0.013176 -3.003090
									CHANNELS 3 Xrotation Yrotation Zrotation
									JOINT RightHandRing2
									{
										OFFSET -3.053307 0.000000 0.000000
										CHANNELS 3 Xrotation Yrotation Zrotation
										JOINT RightHandRing3
										{
											OFFSET -3.295807 0.000000 0.000000
											CHANNELS 3 Xrotation Yrotation Zrotation
											End Site
											{
												OFFSET 1.281006 3.013344 0.375733
											}
										}
									}
								}
								JOINT RightHandPinky1
								{
									OFFSET -10.518692 -0.960396 -5.730441
									CHANNELS 3 Xrotation Yrotation Zrotation
									JOINT RightHandPinky2
									{
										OFFSET -2.861649 0.000000 0.000000
										CHANNELS 3 Xrotation Yrotation Zrotation
										JOINT RightHandPinky3
										{
											OFFSET -2.863380 0.000000 0.000000
											CHANNELS 3 Xrotation Yrotation Zrotation
											End Site
											{
												OFFSET 0.843597 2.711159 0.369971
											}
										}
									}
								}
							}
							JOINT RSleeve
							{
								OFFSET -6.676277 -0.344902 -1.011730
								CHANNELS 3 Xrotation Yrotation Zrotation
								End Site
								{
									OFFSET 0.000000 14.885353 0.000000
								}
							}
						}
					}
				}
				JOINT Backpack
				{
					OFFSET 0.000000 -2.471497 36.677502
					CHANNELS 3 Xrotation Yrotation Zrotation
					End Site
					{
						OFFSET 0.000000 20.427315 0.000000
					}
				}
				JOINT Hood
				{
					OFFSET 0.000000 18.754097 -10.431000
					CHANNELS 3 Xrotation Yrotation Zrotation
					JOINT Hood1
					{
						OFFSET 0.000000 -5.011002 -7.685901
						CHANNELS 3 Xrotation Yrotation Zrotation
						End Site
						{
							OFFSET 0.000000 9.175140 0.000000
						}
					}
				}
				JOINT LHoodieString
				{
					OFFSET 5.250500 16.397697 3.089900
					CHANNELS 3 Xrotation Yrotation Zrotation
					JOINT LHoodieString1
					{
						OFFSET 0.257700 -6.364304 3.694600
						CHANNELS 3 Xrotation Yrotation Zrotation
						JOINT LHoodieString2
						{
							OFFSET 0.000000 -9.643799 2.679100
							CHANNELS 3 Xrotation Yrotation Zrotation
							End Site
							{
								OFFSET 0.000000 10.009018 0.000000
							}
						}
					}
				}
				JOINT RHoodieString
				{
					OFFSET -5.250500 16.397697 3.089900
					CHANNELS 3 Xrotation Yrotation Zrotation
					JOINT RHoodieString1
					{
						OFFSET -0.257700 -6.364304 3.694600
						CHANNELS 3 Xrotation Yrotation Zrotation
						JOINT RHoodieString2
						{
							OFFSET 0.000000 -9.643799 2.679100
							CHANNELS 3 Xrotation Yrotation Zrotation
							End Site
							{
								OFFSET 0.000000 10.009018 0.000000
							}
						}
					}
				}
			}
			JOINT LBackpack_Strap
			{
				OFFSET 15.223200 -7.719803 -6.610900
				CHANNELS 3 Xrotation Yrotation Zrotation
				End Site
				{
					OFFSET 0.000000 16.040596 0.000000
				}
			}
			JOINT RBackpack_Strap
			{
				OFFSET -15.223000 -7.719803 -6.610900
				CHANNELS 3 Xrotation Yrotation Zrotation
				End Site
				{
					OFFSET 0.000000 16.040596 0.000000
				}
			}
		}
	}
	JOINT BoyFacialAnim_Joint
	{
		OFFSET 1.000000 -82.208099 -1.550900
		CHANNELS 3 Xrotation Yrotation Zrotation
		End Site
		{
			OFFSET 0.000000 30.012791 0.000000
		}
	}
}
MOTION
Frames: 4
Frame Time: 0.033333
0.158925 42.994400 -1.439512 -6.908528 -1.791405 1.388041 -0.000000 0.000000 -0.000000 -113.302532 -2.949572 25.091127 90.501700 -1.969624 -2.894678 24.686298 6.924883 1.030401 0.000000 -0.000002 -0.000000 0.000000 -0.000002 -0.000000 0.000001 0.000001 -0.000001 -112.398358 6.371200 -1.131960 86.400889 0.934721 2.773452 31.527723 -6.296127 6.700934 -0.000000 -0.000001 -0.000001 -0.000000 -0.000001 -0.000001 -0.000002 0.000000 0.000000 3.801688 1.021913 -3.988670 7.663862 1.625876 -8.141507 7.663863 1.625876 -8.141513 -0.017472 -0.087549 0.009972 -34.133829 -0.733683 18.847859 -0.000002 -0.000000 -0.000000 -0.000002 -0.000000 -0.000000 -0.000002 -0.000000 -0.000000 0.851427 -13.245333 1.371639 -45.777625 -13.087842 -50.158307 0.114441 -105.283719 -1.318691 49.836287 -3.118380 67.622684 -2.697234 1.293424 -16.865549 10.978948 28.437168 -5.195945 0.000001 -0.000001 0.000001 3.814485 7.565731 -87.541373 0.778371 0.903169 -74.390807 -0.000003 -0.000004 -0.000004 -3.267359 -0.274872 -81.705728 -2.656926 -4.214727 -64.236488 0.000001 -0.000004 0.000001 -3.620892 -0.676269 -76.944130 -3.904239 -4.772317 -78.678049 -0.000000 0.000003 0.000000 -6.555806 -4.222717 -82.501008 -2.852150 -5.480441 -54.981018 -0.000000 -0.000003 0.000001 0.000000 0.000001 0.000000 1.082573 11.338244 -5.441129 -33.207143 45.646571 32.428792 -5.713052 94.553505 5.693224 -25.733702 -7.685443 -0.111270 -0.432431 -7.175956 11.289039 18.831095 -35.205172 5.771760 0.000000 0.000001 -0.000002 -6.643733 -5.131193 35.813445 1.743391 -2.097767 76.275598 -0.000001 0.000001 0.000004 -2.795034 -0.946815 70.802219 -3.314729 3.537234 86.107696 -0.000004 0.000002 -0.000002 -6.025120 2.138229 101.778630 -5.405200 6.102343 81.560648 0.000002 -0.000002 0.000000 -8.286999 5.695396 90.395095 -6.765444 9.338695 71.691776 0.000001 0.000000 -0.000001 -0.000001 0.000000 0.000001 -0.000000 0.000000 -0.000001 -0.000000 0.000000 -0.000001 -0.000000 0.000000 -0.000001 -0.000000 0.000000 -0.000001 -0.000000 0.000000 -0.000001 -0.000000 -0.000000 -0.000001 -0.000000 0.000000 -0.000001 -0.000000 0.000000 -0.000001 -0.000000 -0.000000 -0.000001 0.000000 0.000000 0.000000 0.000000 0.000000 0.000000 -0.000000 0.000000 -0.000000 
0.033966 42.769081 -1.465455 -6.586659 -1.508900 1.532236 0.000000 0.000000 0.000000 -113.507171 -3.009858 24.755051 90.250513 -1.867346 -2.886259 25.023848 7.153388 0.484041 0.000000 0.000000 -0.000000 0.000000 0.000000 -0.000001 -0.000001 0.000000 -0.000000 -112.681954 5.725392 -0.482338 87.308211 0.954375 2.785771 27.866779 -6.002324 1.327447 -0.000000 -0.000000 0.000000 -0.000000 -0.000000 0.000000 0.000001 0.000000 0.000000 4.213652 1.662112 -3.363946 8.516884 2.684193 -7.011612 8.516884 2.684193 -7.011613 -1.061620 0.339273 -0.179896 -34.785590 1.120181 18.069387 0.000002 0.000000 -0.000000 0.000002 0.000000 -0.000000 0.000002 0.000000 -0.000000 0.479870 -15.606460 -2.687941 -46.442998 -4.520451 -55.900696 0.933622 -108.341328 -0.324196 32.022246 -5.481376 61.844843 -2.697234 1.293415 -16.865552 10.978938 28.437177 -5.195947 -0.000001 0.000002 -0.000001 3.814453 7.565731 -87.541380 0.778390 0.903204 -74.390814 -0.000002 0.000001 -0.000003 -3.267359 -0.274871 -81.705728 -2.656915 -4.214729 -64.236502 0.000002 0.000000 0.000000 -3.620887 -0.676264 -76.944123 -3.904251 -4.772323 -78.678049 -0.000001 -0.000002 0.000001 -6.555783 -4.222719 -82.501001 -2.852141 -5.480460 -54.981018 -0.000000 0.000001 0.000002 -0.000000 0.000001 0.000000 1.210178 12.818956 -5.851184 -33.407493 47.331548 31.881469 -10.324696 92.504428 10.323823 -33.245201 -5.653774 1.103408 -0.844164 -6.614506 11.487544 19.405474 -35.912773 6.087478 0.000001 -0.000003 0.000001 -6.754673 -4.988966 36.522931 1.746673 -2.098430 76.363748 -0.000002 0.000002 0.000002 -2.596099 -0.991401 71.959813 -3.309362 3.536861 86.020441 0.000002 0.000001 -0.000002 -6.066020 2.129771 102.253253 -5.411769 6.103290 81.622407 0.000006 -0.000001 0.000002 -8.836200 5.576135 92.060274 -6.844542 9.363705 72.178058 0.000002 -0.000001 0.000000 -0.000000 -0.000001 -0.000000 0.000001 0.000000 -0.000001 0.000001 0.000000 -0.000001 0.000001 0.000000 -0.000001 0.000001 0.000000 -0.000001 0.000001 0.000000 0.000000 0.000000 0.000000 0.000000 0.000001 0.000000 -0.000001 0.000001 0.000000 0.000000 0.000000 0.000000 0.000000 0.000000 -0.000000 0.000001 0.000000 -0.000000 0.000001 0.000000 0.000000 0.000000 
-0.139300 42.535797 -1.331612 -6.303985 -1.001918 1.734652 -0.000000 -0.000000 -0.000000 -113.949310 -2.977719 24.403638 90.258177 -1.821503 -2.884274 25.355061 7.123954 0.106794 -0.000000 0.000000 -0.000000 -0.000000 0.000000 -0.000001 -0.000003 0.000001 0.000000 -113.545652 5.238110 -0.422448 87.732120 0.968485 2.792126 26.908568 -6.314163 -1.837752 -0.000000 -0.000000 0.000000 -0.000000 -0.000000 0.000000 0.000001 0.000000 0.000000 4.545752 2.017493 -2.932255 9.193152 3.373612 -6.191794 9.193149 3.373615 -6.191792 -1.754679 0.841803 -0.371444 -34.699137 3.739053 17.850032 0.000001 -0.000001 -0.000001 0.000001 -0.000001 -0.000001 0.000001 -0.000001 -0.000001 0.066748 -17.446040 -5.886652 -47.137751 1.920601 -59.821344 1.624636 -109.158786 0.674853 16.228832 -6.755707 52.984588 -2.697244 1.293399 -16.865559 10.978947 28.437175 -5.195949 -0.000001 -0.000001 -0.000001 3.814462 7.565709 -87.541387 0.778378 0.903187 -74.390807 0.000001 -0.000001 -0.000002 -3.267371 -0.274900 -81.705735 -2.656927 -4.214716 -64.236522 -0.000001 -0.000001 -0.000002 -3.620884 -0.676289 -76.944130 -3.904271 -4.772347 -78.678042 0.000002 0.000000 -0.000002 -6.555799 -4.222741 -82.501015 -2.852146 -5.480453 -54.980998 -0.000003 -0.000002 -0.000000 0.000000 0.000001 -0.000000 1.418861 15.956702 -5.829168 -32.641498 48.353949 31.229209 -33.855458 90.789115 33.868746 -35.832060 -3.725036 0.085537 -3.841669 -2.781384 11.360844 21.524931 -38.399368 7.275923 0.000004 0.000004 0.000000 -7.467207 -4.181272 39.561101 1.749332 -2.098940 76.435322 0.000001 0.000002 0.000002 -2.674924 -0.893258 75.491383 -3.295303 3.535851 85.792654 -0.000001 -0.000000 0.000003 -6.297828 2.075925 104.525861 -5.374169 6.097671 81.268637 -0.000001 -0.000001 0.000002 -10.385055 5.105909 96.789682 -6.991925 9.408390 73.080347 0.000001 -0.000000 0.000002 -0.000001 0.000000 0.000000 0.000003 0.000001 -0.000001 0.000003 0.000001 -0.000001 0.000003 0.000001 -0.000001 0.000003 0.000001 -0.000001 0.000003 0.000001 -0.000000 0.000001 0.000000 -0.000000 0.000003 0.000001 -0.000001 0.000003 0.000001 -0.000000 0.000001 0.000000 -0.000000 0.000000 -0.000001 0.000001 0.000000 -0.000001 0.000001 -0.000000 -0.000000 -0.000000 
-0.346033 42.332680 -1.125719 -6.078267 -0.372589 2.047069 -0.000000 0.000000 -0.000000 -114.448467 -2.717688 24.208458 90.385901 -1.814177 -2.885500 25.560410 6.667651 -0.015980 -0.000000 0.000000 0.000000 -0.000000 0.000000 -0.000000 0.000004 0.000002 0.000001 -114.535633 5.228082 -0.824152 88.088014 0.993397 2.800611 27.615741 -6.782040 -2.610266 -0.000000 -0.000001 -0.000000 -0.000000 -0.000001 -0.000000 0.000002 0.000000 0.000000 4.734516 2.158508 -2.688919 9.573744 3.773498 -5.692158 9.573746 3.773496 -5.692157 -2.271217 1.447783 -0.453294 -33.287183 7.263705 18.338172 -0.000000 -0.000000 0.000000 -0.000000 -0.000000 0.000000 -0.000000 -0.000000 0.000000 -0.152253 -18.355467 -7.280350 -47.821016 5.378945 -61.882743 1.982156 -108.392691 1.383684 2.678386 -7.354066 43.072464 -2.697228 1.293413 -16.865520 10.978927 28.437170 -5.195927 -0.000000 -0.000000 -0.000001 3.814453 7.565719 -87.541367 0.778373 0.903175 -74.390814 -0.000001 -0.000000 -0.000002 -3.267366 -0.274876 -81.705714 -2.656919 -4.214707 -64.236508 0.000000 -0.000001 -0.000002 -3.620892 -0.676271 -76.944110 -3.904259 -4.772329 -78.678042 -0.000002 0.000001 -0.000004 -6.555787 -4.222732 -82.500974 -2.852159 -5.480451 -54.981018 0.000003 0.000000 -0.000000 -0.000001 -0.000002 -0.000001 1.592247 19.738767 -5.257766 -31.016483 49.187744 31.147698 16.279693 88.485224 -16.256880 -31.550058 -2.944613 -3.481363 -5.519019 -0.691260 12.423499 21.345787 -38.196518 7.174060 0.000001 -0.000002 -0.000002 -7.869994 -3.812673 41.416672 1.742409 -2.097588 76.248960 -0.000000 -0.000000 0.000002 -2.225535 -0.958823 77.021837 -3.293074 3.535684 85.756590 -0.000001 0.000002 -0.000003 -6.333141 2.066836 104.830474 -5.360397 6.095555 81.138822 -0.000001 -0.000002 0.000005 -10.519623 4.947161 98.615330 -7.102924 9.440392 73.757382 -0.000000 -0.000001 0.000002 -0.000003 0.000000 -0.000000 0.000001 -0.000001 0.000000 0.000001 -0.000001 0.000000 0.000001 -0.000001 0.000000 0.000001 -0.000001 0.000000 0.000001 -0.000001 -0.000000 -0.000001 0.000000 -0.000000 0.000001 -0.000001 0.000000 0.000001 -0.000001 -0.000000 -0.000001 0.000000 -0.000000 -0.000000 -0.000000 0.000000 -0.000000 -0.000000 0.000000 -0.000000 0.000000 -0.000000 
